# xmcd
#
# Track frame offsets:
#	187
#	14190
#	26437
#	40140
#	53302
#	67237
#	79210
#	90720
#	103035
#	115415
#	127912
#	139580
#
# Disc length: 2004 seconds
#
# Revision: 0
# Processed by: cddbd v1.5.2PL0 Copyright (c) Steve Scherf et al.
# Submitted via: audiograbber 1.83.01
#
DISCID=9e07d20c
DTITLE=Memphis Slim - Memphis Slim - The Real Folk Blues
DYEAR=1900
DGENRE=
TTITLE0=Memphis Slim - My Baby
TTITLE1=Memphis Slim - Trouble Trouble
TTITLE2=Memphis Slim - Slim's Blues
TTITLE3=Memphis Slim - Tiajuana
TTITLE4=Memphis Slim - I Guess I'm A Fool
TTITLE5=Memphis Slim - Really Got The Blues
TTITLE6=Memphis Slim - Feeling Low
TTITLE7=Memphis Slim - For A Day
TTITLE8=Memphis Slim - Mother Earth
TTITLE9=Memphis Slim - Blues For My Baby
TTITLE10=Memphis Slim - Marack
TTITLE11=Memphis Slim - Having Fun
EXTD=
EXTT0=
EXTT1=
EXTT2=
EXTT3=
EXTT4=
EXTT5=
EXTT6=
EXTT7=
EXTT8=
EXTT9=
EXTT10=
EXTT11=
PLAYORDER=
